<svg width="128" height="70" viewBox="0 0 128 70" fill="none" xmlns="http://www.w3.org/2000/svg">
<g filter="url(#filter0_dd_2_168)">
<circle cx="35" cy="30" r="20" fill="#70F0B4"/>
</g>
<path fill-rule="evenodd" clip-rule="evenodd" d="M44.8092 31.6746C44.9364 31.3885 45 31.0826 45 30.7568V22.7591C45 22.4333 44.9364 22.1274 44.8092 21.8413C44.6901 21.5552 44.5232 21.3089 44.3086 21.1023C44.102 20.8878 43.8557 20.7209 43.5697 20.6017C43.2836 20.4746 42.9777 20.411 42.6519 20.411H38.4564C38.1465 20.411 37.8525 20.4666 37.5743 20.5779C37.3042 20.6891 37.0658 20.8441 36.8592 21.0427C36.6526 21.2334 36.4818 21.4599 36.3467 21.7221C36.2977 21.8143 36.256 21.9097 36.2216 22.0082H36.1083V20.411H33.7721V26.895H27.3361C27.0183 26.895 26.7164 26.9586 26.4303 27.0857C26.1442 27.2049 25.8939 27.3718 25.6794 27.5863C25.4728 27.7929 25.3059 28.0393 25.1788 28.3253C25.0596 28.6114 25 28.9173 25 29.2431V37.2408C25 37.5666 25.0596 37.8726 25.1788 38.1586C25.3059 38.4447 25.4728 38.695 25.6794 38.9095C25.8939 39.1161 26.1442 39.283 26.4303 39.4101C26.7164 39.5293 27.0183 39.5889 27.3361 39.5889H31.5436C31.8456 39.5889 32.1316 39.5333 32.4018 39.422C32.6719 39.3108 32.9103 39.1598 33.1169 38.9691C33.3315 38.7705 33.5063 38.54 33.6414 38.2778C33.6931 38.1773 33.7367 38.0745 33.7721 37.9694V38.2301H33.8798V39.5889H36.2278V33.1049H42.6519C42.9777 33.1049 43.2836 33.0453 43.5697 32.9261C43.8557 32.799 44.102 32.6321 44.3086 32.4255C44.5232 32.2109 44.6901 31.9606 44.8092 31.6746ZM33.7721 29.2431V37.2408H27.3361V29.2431H33.7721ZM36.2278 30.7568V22.7591H42.6519V30.7568H36.2278Z" fill="#2D2E33"/>
<path d="M78.368 34H76.32V33.008C75.6907 33.7973 74.896 34.192 73.936 34.192C72.9333 34.192 72.112 33.8347 71.472 33.12C70.832 32.3947 70.512 31.4027 70.512 30.144C70.512 28.9067 70.832 27.92 71.472 27.184C72.112 26.448 72.9333 26.08 73.936 26.08C74.9173 26.08 75.712 26.4747 76.32 27.264V23.328H78.368V34ZM74.56 32.384C74.9013 32.384 75.2373 32.304 75.568 32.144C75.8987 31.9733 76.1493 31.76 76.32 31.504V28.768C76.1493 28.512 75.8987 28.304 75.568 28.144C75.2373 27.9733 74.9013 27.888 74.56 27.888C73.984 27.888 73.5147 28.096 73.152 28.512C72.7893 28.928 72.608 29.472 72.608 30.144C72.608 30.8053 72.7893 31.344 73.152 31.76C73.5147 32.176 73.984 32.384 74.56 32.384ZM81.391 25.44C81.0603 25.44 80.7723 25.3227 80.527 25.088C80.2923 24.8427 80.175 24.5547 80.175 24.224C80.175 23.8933 80.2923 23.6107 80.527 23.376C80.7723 23.1413 81.0603 23.024 81.391 23.024C81.7323 23.024 82.0203 23.1413 82.255 23.376C82.4897 23.6107 82.607 23.8933 82.607 24.224C82.607 24.5547 82.4897 24.8427 82.255 25.088C82.0203 25.3227 81.7323 25.44 81.391 25.44ZM82.415 34H80.383V26.272H82.415V34ZM88.6219 34H86.4299L83.3259 26.272H85.5019L87.5179 31.648L89.5339 26.272H91.7259L88.6219 34ZM97.049 34.192C96.0783 34.192 95.2837 33.7973 94.665 33.008V36.944H92.633V26.272H94.665V27.248C95.273 26.4693 96.0677 26.08 97.049 26.08C98.0623 26.08 98.8837 26.4427 99.513 27.168C100.153 27.8827 100.473 28.8693 100.473 30.128C100.473 31.3867 100.153 32.3787 99.513 33.104C98.8837 33.8293 98.0623 34.192 97.049 34.192ZM96.409 32.384C96.9957 32.384 97.465 32.176 97.817 31.76C98.1797 31.344 98.361 30.8 98.361 30.128C98.361 29.4667 98.1797 28.928 97.817 28.512C97.465 28.096 96.9957 27.888 96.409 27.888C96.0783 27.888 95.7477 27.9733 95.417 28.144C95.0863 28.3147 94.8357 28.5227 94.665 28.768V31.504C94.8357 31.7493 95.0863 31.9573 95.417 32.128C95.7583 32.2987 96.089 32.384 96.409 32.384ZM103.993 34H101.961V26.272H103.993V27.328C104.281 26.9653 104.649 26.6667 105.097 26.432C105.545 26.1973 105.998 26.08 106.457 26.08V28.064C106.318 28.032 106.132 28.016 105.897 28.016C105.556 28.016 105.193 28.1013 104.809 28.272C104.425 28.4427 104.153 28.6507 103.993 28.896V34ZM108.735 25.44C108.404 25.44 108.116 25.3227 107.871 25.088C107.636 24.8427 107.519 24.5547 107.519 24.224C107.519 23.8933 107.636 23.6107 107.871 23.376C108.116 23.1413 108.404 23.024 108.735 23.024C109.076 23.024 109.364 23.1413 109.599 23.376C109.833 23.6107 109.951 23.8933 109.951 24.224C109.951 24.5547 109.833 24.8427 109.599 25.088C109.364 25.3227 109.076 25.44 108.735 25.44ZM109.759 34H107.727V26.272H109.759V34ZM115.374 34.192C114.179 34.192 113.198 33.8133 112.43 33.056C111.662 32.2987 111.278 31.3227 111.278 30.128C111.278 28.944 111.662 27.9733 112.43 27.216C113.198 26.4587 114.179 26.08 115.374 26.08C116.739 26.08 117.758 26.544 118.43 27.472L117.102 28.72C116.728 28.1653 116.184 27.888 115.47 27.888C114.851 27.888 114.344 28.096 113.95 28.512C113.566 28.9173 113.374 29.456 113.374 30.128C113.374 30.8 113.566 31.344 113.95 31.76C114.344 32.176 114.851 32.384 115.47 32.384C116.163 32.384 116.707 32.1067 117.102 31.552L118.43 32.784C117.758 33.7227 116.739 34.192 115.374 34.192ZM123.39 34.192C122.195 34.192 121.209 33.8187 120.43 33.072C119.651 32.3253 119.262 31.344 119.262 30.128C119.262 28.9867 119.635 28.0267 120.382 27.248C121.139 26.4693 122.099 26.08 123.262 26.08C124.414 26.08 125.347 26.4747 126.062 27.264C126.777 28.0427 127.134 29.0667 127.134 30.336V30.784H121.39C121.454 31.296 121.683 31.7227 122.078 32.064C122.473 32.4053 122.985 32.576 123.614 32.576C123.955 32.576 124.323 32.5067 124.718 32.368C125.123 32.2293 125.443 32.0427 125.678 31.808L126.574 33.12C125.795 33.8347 124.734 34.192 123.39 34.192ZM125.166 29.408C125.134 28.9707 124.958 28.576 124.638 28.224C124.329 27.872 123.87 27.696 123.262 27.696C122.686 27.696 122.238 27.872 121.918 28.224C121.598 28.5653 121.411 28.96 121.358 29.408H125.166Z" fill="white"/>
<defs>
<filter id="filter0_dd_2_168" x="0" y="0" width="70" height="70" filterUnits="userSpaceOnUse" color-interpolation-filters="sRGB">
<feFlood flood-opacity="0" result="BackgroundImageFix"/>
<feColorMatrix in="SourceAlpha" type="matrix" values="0 0 0 0 0 0 0 0 0 0 0 0 0 0 0 0 0 0 127 0" result="hardAlpha"/>
<feOffset dy="5"/>
<feGaussianBlur stdDeviation="7.5"/>
<feColorMatrix type="matrix" values="0 0 0 0 0.439216 0 0 0 0 0.941176 0 0 0 0 0.705882 0 0 0 0.25 0"/>
<feBlend mode="normal" in2="BackgroundImageFix" result="effect1_dropShadow_2_168"/>
<feColorMatrix in="SourceAlpha" type="matrix" values="0 0 0 0 0 0 0 0 0 0 0 0 0 0 0 0 0 0 127 0" result="hardAlpha"/>
<feMorphology radius="2" operator="erode" in="SourceAlpha" result="effect2_dropShadow_2_168"/>
<feOffset dy="3"/>
<feGaussianBlur stdDeviation="2.5"/>
<feColorMatrix type="matrix" values="0 0 0 0 0.439216 0 0 0 0 0.941176 0 0 0 0 0.705882 0 0 0 0.3 0"/>
<feBlend mode="normal" in2="effect1_dropShadow_2_168" result="effect2_dropShadow_2_168"/>
<feBlend mode="normal" in="SourceGraphic" in2="effect2_dropShadow_2_168" result="shape"/>
</filter>
</defs>
</svg>
