<svg width="24" height="24" viewBox="0 0 24 24" fill="none" xmlns="http://www.w3.org/2000/svg">
<path fill-rule="evenodd" clip-rule="evenodd" d="M2.05034 13.0046L11.2882 22.2425C11.6787 22.633 12.3119 22.633 12.7024 22.2425L21.9403 13.0046C24.6865 10.2584 24.6865 5.8059 21.9403 3.05967C19.1941 0.313451 14.7416 0.313441 11.9953 3.05965C9.24836 0.32274 4.80281 0.325843 2.05969 3.06896C-0.68343 5.81208 -0.686573 10.2577 2.05034 13.0046ZM3.48742 11.6133L11.9953 20.1212L20.5261 11.5904C22.4912 9.62525 22.4912 6.43906 20.5261 4.47389C18.5609 2.50871 15.3747 2.5087 13.4095 4.47387L12.7037 5.17968C12.3137 5.56969 11.6815 5.57027 11.2908 5.18097L10.5837 4.47646C8.61806 2.51801 5.43684 2.52024 3.4739 4.48318C1.51096 6.44612 1.50873 9.62734 3.46718 11.593L3.48742 11.6133Z" fill="#70F0B4"/>
</svg>
