<svg width="24" height="24" viewBox="0 0 24 24" fill="none" xmlns="http://www.w3.org/2000/svg">
<path d="M9.62955 9.09804C9.20044 8.75035 8.57073 8.81635 8.22304 9.24545C7.87535 9.67456 7.94135 10.3043 8.37045 10.652L9.62955 9.09804ZM23.7771 3.62938C24.1247 3.2002 24.0586 2.5705 23.6294 2.2229C23.2002 1.87531 22.5705 1.94144 22.2229 2.37062L23.7771 3.62938ZM14.7204 13.2227L15.4975 13.8521L14.7204 13.2227ZM8.37045 10.652L12.6842 14.1473L13.9433 12.5934L9.62955 9.09804L8.37045 10.652ZM15.4975 13.8521L23.7771 3.62938L22.2229 2.37062L13.9433 12.5934L15.4975 13.8521ZM12.6842 14.1473C13.5426 14.8428 14.8022 14.7106 15.4975 13.8521L13.9433 12.5934L13.9433 12.5934L12.6842 14.1473Z" fill="#70F0B4"/>
<path d="M23 12C23 14.2984 22.2801 16.539 20.9413 18.4073C19.6026 20.2755 17.7122 21.6774 15.5358 22.4162C13.3594 23.155 11.0063 23.1935 8.80687 22.5263C6.60746 21.8592 4.67228 20.5198 3.27311 18.6964C1.87395 16.873 1.08109 14.6571 1.00589 12.3599C0.930689 10.0628 1.57692 7.79976 2.85383 5.88873C4.13074 3.9777 5.97418 2.51464 8.12525 1.70503C10.2763 0.895431 12.6269 0.779952 14.847 1.37482" stroke="#70F0B4" stroke-width="2" stroke-linecap="round"/>
</svg>
