<svg xmlns="http://www.w3.org/2000/svg" xmlns:xlink="http://www.w3.org/1999/xlink"><defs>
<filter id="filter0_dd_2_168" x="0" y="0" width="70" height="70" filterUnits="userSpaceOnUse" color-interpolation-filters="sRGB">
<feFlood flood-opacity="0" result="BackgroundImageFix"/>
<feColorMatrix in="SourceAlpha" type="matrix" values="0 0 0 0 0 0 0 0 0 0 0 0 0 0 0 0 0 0 127 0" result="hardAlpha"/>
<feOffset dy="5"/>
<feGaussianBlur stdDeviation="7.5"/>
<feColorMatrix type="matrix" values="0 0 0 0 0.439216 0 0 0 0 0.941176 0 0 0 0 0.705882 0 0 0 0.25 0"/>
<feBlend mode="normal" in2="BackgroundImageFix" result="effect1_dropShadow_2_168"/>
<feColorMatrix in="SourceAlpha" type="matrix" values="0 0 0 0 0 0 0 0 0 0 0 0 0 0 0 0 0 0 127 0" result="hardAlpha"/>
<feMorphology radius="2" operator="erode" in="SourceAlpha" result="effect2_dropShadow_2_168"/>
<feOffset dy="3"/>
<feGaussianBlur stdDeviation="2.5"/>
<feColorMatrix type="matrix" values="0 0 0 0 0.439216 0 0 0 0 0.941176 0 0 0 0 0.705882 0 0 0 0.3 0"/>
<feBlend mode="normal" in2="effect1_dropShadow_2_168" result="effect2_dropShadow_2_168"/>
<feBlend mode="normal" in="SourceGraphic" in2="effect2_dropShadow_2_168" result="shape"/>
</filter>

<clipPath id="clip0_2_230">
<rect width="16.6154" height="16.6154" fill="white" transform="translate(17.2298 17.3844) rotate(-180)"/>
</clipPath>

<clipPath id="clip0_2_246">
<rect width="24" height="24" fill="white"/>
</clipPath>

<clipPath id="clip0_2_239">
<rect width="24" height="24" fill="white"/>
</clipPath>
</defs><symbol id="icon-chrome" viewBox="0 0 30 30">
<path d="M11.0625 14.9959C11.0623 15.7747 11.293 16.5361 11.7255 17.1838C12.158 17.8314 12.7729 18.3363 13.4924 18.6345C14.2118 18.9327 15.0036 19.0109 15.7674 18.8591C16.5313 18.7073 17.233 18.3323 17.7838 17.7817C18.3346 17.2311 18.7097 16.5295 18.8618 15.7657C19.0138 15.0018 18.9359 14.2101 18.6379 13.4905C18.3399 12.771 17.8352 12.1559 17.1877 11.7232C16.5401 11.2905 15.7788 11.0596 15 11.0596C13.9568 11.0624 12.957 11.4779 12.2193 12.2155C11.4815 12.9531 11.0656 13.9527 11.0625 14.9959Z" fill="#25282D"/>
<path d="M27.9346 12.7611V12.7641C27.8385 12.1917 27.7015 11.6269 27.5244 11.0742H27.518C27.6977 11.6296 27.8362 12.1976 27.9322 12.7734C27.8359 12.1977 27.6975 11.6297 27.518 11.0742H18.4125C19.5287 12.0703 20.25 13.4279 20.25 15.0029C20.2526 15.9259 20.0032 16.8321 19.5287 17.6238L13.5352 28.0342C13.5354 28.0395 13.5354 28.0447 13.5352 28.05V28.0664V28.0512C14.0217 28.1031 14.5107 28.1277 15 28.125C15.4008 28.125 15.7975 28.1021 16.1895 28.0664C16.7767 28.0133 17.3597 27.9205 17.9344 27.7887C23.7703 26.4563 28.125 21.2344 28.125 14.9965C28.1251 14.2473 28.0614 13.4995 27.9346 12.7611Z" fill="#25282D"/>
<path d="M15 20.2442C13.0313 20.2442 11.3906 19.1947 10.4713 17.6198L4.45312 7.20999L4.44492 7.19592C3.14631 8.95407 2.30735 11.0087 2.00417 13.1733C1.70099 15.3379 1.9432 17.544 2.70881 19.5912C3.47443 21.6385 4.7392 23.4621 6.38834 24.8966C8.03748 26.3311 10.0188 27.3311 12.1523 27.8057V27.8028L16.7045 19.916C16.1602 20.1254 15.5831 20.2365 15 20.2442Z" fill="#25282D"/>
<path d="M5.34902 6.12718L9.88125 13.9348C10.1165 12.7498 10.7551 11.6829 11.6884 10.9157C12.6216 10.1484 13.7919 9.72825 15 9.7266H27.0217C26.6084 8.81853 26.1022 7.95572 25.5111 7.15199L25.5182 7.15667C26.107 7.95895 26.6108 8.82021 27.0217 9.7266H27.0316C26.6211 8.81749 26.1172 7.95349 25.5281 7.14847C25.5209 7.14397 25.514 7.13887 25.5076 7.13324C24.3528 5.58943 22.872 4.31907 21.1706 3.41253C19.4691 2.50599 17.5888 1.98553 15.6633 1.8882C13.7379 1.79086 11.8146 2.11903 10.0304 2.84936C8.24617 3.57969 6.64481 4.69423 5.34023 6.11371L5.34844 6.12777L5.34902 6.12718Z" fill="#25282D"/>
</symbol><symbol id="icon-done" viewBox="0 0 16 16">
<ellipse cx="8" cy="8" rx="6" ry="6" fill="#70F0B4" fill-opacity="0.25"/>
<path d="M6.36 6.18671C6.09491 5.98789 5.71883 6.04161 5.52 6.30671C5.32118 6.5718 5.37491 6.94789 5.64 7.14671L6.36 6.18671ZM13.7849 3.72848C14.0031 3.47909 13.9778 3.10004 13.7284 2.88183C13.4791 2.66362 13.1 2.68889 12.8818 2.93827L13.7849 3.72848ZM7.92477 8.11028L8.28477 7.63028L7.92477 8.11028ZM5.64 7.14671L7.56477 8.59028L8.28477 7.63028L6.36 6.18671L5.64 7.14671ZM9.7289 8.36389L13.7849 3.72848L12.8818 2.93827L8.8258 7.57369L9.7289 8.36389ZM7.56477 8.59028C8.23433 9.09245 9.17776 8.99376 9.7289 8.36389L8.8258 7.57369C8.68802 7.73115 8.45216 7.75583 8.28477 7.63028L7.56477 8.59028Z" fill="#70F0B4"/>
<path d="M14 8C14 9.25366 13.6073 10.4758 12.8771 11.4949C12.1469 12.5139 11.1158 13.2786 9.92864 13.6816C8.74151 14.0846 7.45797 14.1056 6.25829 13.7416C5.05861 13.3777 4.00306 12.6472 3.23988 11.6526C2.4767 10.658 2.04423 9.4493 2.00321 8.19631C1.96219 6.94332 2.31469 5.70896 3.01118 4.66658C3.70768 3.6242 4.71319 2.82617 5.8865 2.38456C7.05981 1.94296 8.34197 1.87997 9.55291 2.20444" stroke="#70F0B4" stroke-width="1.2" stroke-linecap="round"/>
</symbol><symbol id="icon-ellipse" viewBox="0 0 14 14">
<path d="M13 7C13 8.25366 12.6073 9.47583 11.8771 10.4949C11.1469 11.5139 10.1158 12.2786 8.92864 12.6816C7.74151 13.0846 6.45797 13.1056 5.25829 12.7416C4.05861 12.3777 3.00306 11.6472 2.23988 10.6526C1.4767 9.65797 1.04423 8.4493 1.00321 7.19631C0.962194 5.94332 1.31469 4.70896 2.01118 3.66658C2.70768 2.6242 3.71319 1.82617 4.8865 1.38456C6.05981 0.942962 7.34197 0.879974 8.55291 1.20444" stroke="#70F0B4" stroke-width="1.2" stroke-linecap="round"/>
</symbol><symbol id="icon-favorite" viewBox="0 0 24 24">
<path fill-rule="evenodd" clip-rule="evenodd" d="M2.05034 13.0046L11.2882 22.2425C11.6787 22.633 12.3119 22.633 12.7024 22.2425L21.9403 13.0046C24.6865 10.2584 24.6865 5.8059 21.9403 3.05967C19.1941 0.313451 14.7416 0.313441 11.9953 3.05965C9.24836 0.32274 4.80281 0.325843 2.05969 3.06896C-0.68343 5.81208 -0.686573 10.2577 2.05034 13.0046ZM3.48742 11.6133L11.9953 20.1212L20.5261 11.5904C22.4912 9.62525 22.4912 6.43906 20.5261 4.47389C18.5609 2.50871 15.3747 2.5087 13.4095 4.47387L12.7037 5.17968C12.3137 5.56969 11.6815 5.57027 11.2908 5.18097L10.5837 4.47646C8.61806 2.51801 5.43684 2.52024 3.4739 4.48318C1.51096 6.44612 1.50873 9.62734 3.46718 11.593L3.48742 11.6133Z" fill="#70F0B4"/>
</symbol><symbol id="icon-logo" viewBox="0 0 128 70">
<g filter="url(#filter0_dd_2_168)">
<circle cx="35" cy="30" r="20" fill="#70F0B4"/>
</g>
<path fill-rule="evenodd" clip-rule="evenodd" d="M44.8092 31.6746C44.9364 31.3885 45 31.0826 45 30.7568V22.7591C45 22.4333 44.9364 22.1274 44.8092 21.8413C44.6901 21.5552 44.5232 21.3089 44.3086 21.1023C44.102 20.8878 43.8557 20.7209 43.5697 20.6017C43.2836 20.4746 42.9777 20.411 42.6519 20.411H38.4564C38.1465 20.411 37.8525 20.4666 37.5743 20.5779C37.3042 20.6891 37.0658 20.8441 36.8592 21.0427C36.6526 21.2334 36.4818 21.4599 36.3467 21.7221C36.2977 21.8143 36.256 21.9097 36.2216 22.0082H36.1083V20.411H33.7721V26.895H27.3361C27.0183 26.895 26.7164 26.9586 26.4303 27.0857C26.1442 27.2049 25.8939 27.3718 25.6794 27.5863C25.4728 27.7929 25.3059 28.0393 25.1788 28.3253C25.0596 28.6114 25 28.9173 25 29.2431V37.2408C25 37.5666 25.0596 37.8726 25.1788 38.1586C25.3059 38.4447 25.4728 38.695 25.6794 38.9095C25.8939 39.1161 26.1442 39.283 26.4303 39.4101C26.7164 39.5293 27.0183 39.5889 27.3361 39.5889H31.5436C31.8456 39.5889 32.1316 39.5333 32.4018 39.422C32.6719 39.3108 32.9103 39.1598 33.1169 38.9691C33.3315 38.7705 33.5063 38.54 33.6414 38.2778C33.6931 38.1773 33.7367 38.0745 33.7721 37.9694V38.2301H33.8798V39.5889H36.2278V33.1049H42.6519C42.9777 33.1049 43.2836 33.0453 43.5697 32.9261C43.8557 32.799 44.102 32.6321 44.3086 32.4255C44.5232 32.2109 44.6901 31.9606 44.8092 31.6746ZM33.7721 29.2431V37.2408H27.3361V29.2431H33.7721ZM36.2278 30.7568V22.7591H42.6519V30.7568H36.2278Z" fill="#2D2E33"/>
<path d="M78.368 34H76.32V33.008C75.6907 33.7973 74.896 34.192 73.936 34.192C72.9333 34.192 72.112 33.8347 71.472 33.12C70.832 32.3947 70.512 31.4027 70.512 30.144C70.512 28.9067 70.832 27.92 71.472 27.184C72.112 26.448 72.9333 26.08 73.936 26.08C74.9173 26.08 75.712 26.4747 76.32 27.264V23.328H78.368V34ZM74.56 32.384C74.9013 32.384 75.2373 32.304 75.568 32.144C75.8987 31.9733 76.1493 31.76 76.32 31.504V28.768C76.1493 28.512 75.8987 28.304 75.568 28.144C75.2373 27.9733 74.9013 27.888 74.56 27.888C73.984 27.888 73.5147 28.096 73.152 28.512C72.7893 28.928 72.608 29.472 72.608 30.144C72.608 30.8053 72.7893 31.344 73.152 31.76C73.5147 32.176 73.984 32.384 74.56 32.384ZM81.391 25.44C81.0603 25.44 80.7723 25.3227 80.527 25.088C80.2923 24.8427 80.175 24.5547 80.175 24.224C80.175 23.8933 80.2923 23.6107 80.527 23.376C80.7723 23.1413 81.0603 23.024 81.391 23.024C81.7323 23.024 82.0203 23.1413 82.255 23.376C82.4897 23.6107 82.607 23.8933 82.607 24.224C82.607 24.5547 82.4897 24.8427 82.255 25.088C82.0203 25.3227 81.7323 25.44 81.391 25.44ZM82.415 34H80.383V26.272H82.415V34ZM88.6219 34H86.4299L83.3259 26.272H85.5019L87.5179 31.648L89.5339 26.272H91.7259L88.6219 34ZM97.049 34.192C96.0783 34.192 95.2837 33.7973 94.665 33.008V36.944H92.633V26.272H94.665V27.248C95.273 26.4693 96.0677 26.08 97.049 26.08C98.0623 26.08 98.8837 26.4427 99.513 27.168C100.153 27.8827 100.473 28.8693 100.473 30.128C100.473 31.3867 100.153 32.3787 99.513 33.104C98.8837 33.8293 98.0623 34.192 97.049 34.192ZM96.409 32.384C96.9957 32.384 97.465 32.176 97.817 31.76C98.1797 31.344 98.361 30.8 98.361 30.128C98.361 29.4667 98.1797 28.928 97.817 28.512C97.465 28.096 96.9957 27.888 96.409 27.888C96.0783 27.888 95.7477 27.9733 95.417 28.144C95.0863 28.3147 94.8357 28.5227 94.665 28.768V31.504C94.8357 31.7493 95.0863 31.9573 95.417 32.128C95.7583 32.2987 96.089 32.384 96.409 32.384ZM103.993 34H101.961V26.272H103.993V27.328C104.281 26.9653 104.649 26.6667 105.097 26.432C105.545 26.1973 105.998 26.08 106.457 26.08V28.064C106.318 28.032 106.132 28.016 105.897 28.016C105.556 28.016 105.193 28.1013 104.809 28.272C104.425 28.4427 104.153 28.6507 103.993 28.896V34ZM108.735 25.44C108.404 25.44 108.116 25.3227 107.871 25.088C107.636 24.8427 107.519 24.5547 107.519 24.224C107.519 23.8933 107.636 23.6107 107.871 23.376C108.116 23.1413 108.404 23.024 108.735 23.024C109.076 23.024 109.364 23.1413 109.599 23.376C109.833 23.6107 109.951 23.8933 109.951 24.224C109.951 24.5547 109.833 24.8427 109.599 25.088C109.364 25.3227 109.076 25.44 108.735 25.44ZM109.759 34H107.727V26.272H109.759V34ZM115.374 34.192C114.179 34.192 113.198 33.8133 112.43 33.056C111.662 32.2987 111.278 31.3227 111.278 30.128C111.278 28.944 111.662 27.9733 112.43 27.216C113.198 26.4587 114.179 26.08 115.374 26.08C116.739 26.08 117.758 26.544 118.43 27.472L117.102 28.72C116.728 28.1653 116.184 27.888 115.47 27.888C114.851 27.888 114.344 28.096 113.95 28.512C113.566 28.9173 113.374 29.456 113.374 30.128C113.374 30.8 113.566 31.344 113.95 31.76C114.344 32.176 114.851 32.384 115.47 32.384C116.163 32.384 116.707 32.1067 117.102 31.552L118.43 32.784C117.758 33.7227 116.739 34.192 115.374 34.192ZM123.39 34.192C122.195 34.192 121.209 33.8187 120.43 33.072C119.651 32.3253 119.262 31.344 119.262 30.128C119.262 28.9867 119.635 28.0267 120.382 27.248C121.139 26.4693 122.099 26.08 123.262 26.08C124.414 26.08 125.347 26.4747 126.062 27.264C126.777 28.0427 127.134 29.0667 127.134 30.336V30.784H121.39C121.454 31.296 121.683 31.7227 122.078 32.064C122.473 32.4053 122.985 32.576 123.614 32.576C123.955 32.576 124.323 32.5067 124.718 32.368C125.123 32.2293 125.443 32.0427 125.678 31.808L126.574 33.12C125.795 33.8347 124.734 34.192 123.39 34.192ZM125.166 29.408C125.134 28.9707 124.958 28.576 124.638 28.224C124.329 27.872 123.87 27.696 123.262 27.696C122.686 27.696 122.238 27.872 121.918 28.224C121.598 28.5653 121.411 28.96 121.358 29.408H125.166Z" fill="white"/>

</symbol><symbol id="icon-notification" viewBox="0 0 24 24">
<path d="M9.62955 9.09804C9.20044 8.75035 8.57073 8.81635 8.22304 9.24545C7.87535 9.67456 7.94135 10.3043 8.37045 10.652L9.62955 9.09804ZM23.7771 3.62938C24.1247 3.2002 24.0586 2.5705 23.6294 2.2229C23.2002 1.87531 22.5705 1.94144 22.2229 2.37062L23.7771 3.62938ZM14.7204 13.2227L15.4975 13.8521L14.7204 13.2227ZM8.37045 10.652L12.6842 14.1473L13.9433 12.5934L9.62955 9.09804L8.37045 10.652ZM15.4975 13.8521L23.7771 3.62938L22.2229 2.37062L13.9433 12.5934L15.4975 13.8521ZM12.6842 14.1473C13.5426 14.8428 14.8022 14.7106 15.4975 13.8521L13.9433 12.5934L13.9433 12.5934L12.6842 14.1473Z" fill="#70F0B4"/>
<path d="M23 12C23 14.2984 22.2801 16.539 20.9413 18.4073C19.6026 20.2755 17.7122 21.6774 15.5358 22.4162C13.3594 23.155 11.0063 23.1935 8.80687 22.5263C6.60746 21.8592 4.67228 20.5198 3.27311 18.6964C1.87395 16.873 1.08109 14.6571 1.00589 12.3599C0.930689 10.0628 1.57692 7.79976 2.85383 5.88873C4.13074 3.9777 5.97418 2.51464 8.12525 1.70503C10.2763 0.895431 12.6269 0.779952 14.847 1.37482" stroke="#70F0B4" stroke-width="2" stroke-linecap="round"/>
</symbol><symbol id="icon-status" viewBox="0 0 18 18">
<g clip-path="url(#clip0_2_230)">
<path d="M8.92214 0.769008C7.27903 0.769008 5.67283 1.25625 4.30663 2.16911C2.94044 3.08197 1.87562 4.37945 1.24683 5.89749C0.618043 7.41552 0.453522 9.08592 0.774077 10.6975C1.09463 12.309 1.88586 13.7893 3.04771 14.9511C4.20956 16.113 5.68985 16.9042 7.30139 17.2248C8.91292 17.5453 10.5833 17.3808 12.1014 16.752C13.6194 16.1232 14.9169 15.0584 15.8297 13.6922C16.7426 12.326 17.2298 10.7198 17.2298 9.0767C17.2274 6.8741 16.3514 4.76239 14.7939 3.20491C13.2365 1.64743 11.1247 0.77139 8.92214 0.769008ZM12.8731 10.8317L10.3905 13.3143C10.1977 13.5072 9.96868 13.6602 9.71668 13.7646C9.46467 13.869 9.19457 13.9228 8.92179 13.9228C8.64902 13.9228 8.37891 13.869 8.12691 13.7646C7.8749 13.6602 7.64593 13.5072 7.45306 13.3143L4.97114 10.8317L4.95452 10.8144C4.88853 10.7496 4.83619 10.6723 4.80058 10.587C4.76497 10.5016 4.74681 10.41 4.74719 10.3175C4.74756 10.2251 4.76645 10.1336 4.80274 10.0486C4.83904 9.96354 4.892 9.88663 4.95851 9.82238C5.02502 9.75814 5.10372 9.70788 5.18997 9.67455C5.27622 9.64122 5.36828 9.62551 5.4607 9.62835C5.55312 9.63118 5.64404 9.6525 5.72809 9.69105C5.81214 9.72959 5.88761 9.78459 5.95006 9.85278L8.22983 12.1325L8.22498 4.92286C8.22498 4.73924 8.29792 4.56315 8.42776 4.43332C8.55759 4.30349 8.73368 4.23055 8.91729 4.23055C9.1009 4.23055 9.27699 4.30349 9.40683 4.43332C9.53666 4.56315 9.6096 4.73924 9.6096 4.92286L9.61444 12.1319L11.8942 9.85278C11.9581 9.78666 12.0345 9.73392 12.1189 9.69763C12.2034 9.66135 12.2942 9.64225 12.3862 9.64145C12.4781 9.64065 12.5693 9.65817 12.6543 9.69298C12.7394 9.72779 12.8167 9.7792 12.8817 9.8442C12.9467 9.9092 12.9981 9.9865 13.0329 10.0716C13.0677 10.1567 13.0853 10.2478 13.0845 10.3397C13.0837 10.4317 13.0646 10.5225 13.0283 10.607C12.992 10.6914 12.9393 10.7678 12.8731 10.8317Z" fill="#70F0B4"/>
</g>

</symbol><symbol id="icon-ticket" viewBox="0 0 24 24">
<g clip-path="url(#clip0_2_246)">
<path d="M16 0H15.87C15.4225 0.00425181 14.989 0.157013 14.6377 0.434299C14.2864 0.711585 14.0371 1.09769 13.929 1.532C13.8132 1.95484 13.5617 2.32792 13.2132 2.59385C12.8647 2.85979 12.4384 3.00383 12 3.00383C11.5616 3.00383 11.1353 2.85979 10.7868 2.59385C10.4383 2.32792 10.1868 1.95484 10.071 1.532C9.96289 1.09769 9.71362 0.711585 9.3623 0.434299C9.01099 0.157013 8.57754 0.00425181 8.13 0L8 0C6.6744 0.00158786 5.40356 0.528882 4.46622 1.46622C3.52888 2.40356 3.00159 3.6744 3 5V21C3 21.7956 3.31607 22.5587 3.87868 23.1213C4.44129 23.6839 5.20435 24 6 24H8.13C8.57754 23.9957 9.01099 23.843 9.3623 23.5657C9.71362 23.2884 9.96289 22.9023 10.071 22.468C10.1868 22.0452 10.4383 21.6721 10.7868 21.4061C11.1353 21.1402 11.5616 20.9962 12 20.9962C12.4384 20.9962 12.8647 21.1402 13.2132 21.4061C13.5617 21.6721 13.8132 22.0452 13.929 22.468C14.0371 22.9023 14.2864 23.2884 14.6377 23.5657C14.989 23.843 15.4225 23.9957 15.87 24H18C18.7956 24 19.5587 23.6839 20.1213 23.1213C20.6839 22.5587 21 21.7956 21 21V5C20.9984 3.6744 20.4711 2.40356 19.5338 1.46622C18.5964 0.528882 17.3256 0.00158786 16 0V0ZM18 22L15.857 21.937C15.6221 21.0884 15.1138 20.341 14.4109 19.8108C13.708 19.2805 12.8498 18.997 11.9693 19.0041C11.0889 19.0113 10.2354 19.3088 9.54122 19.8505C8.84705 20.3921 8.35101 21.1477 8.13 22H6C5.73478 22 5.48043 21.8946 5.29289 21.7071C5.10536 21.5196 5 21.2652 5 21V17H7C7.26521 17 7.51957 16.8946 7.7071 16.7071C7.89464 16.5196 8 16.2652 8 16C8 15.7348 7.89464 15.4804 7.7071 15.2929C7.51957 15.1054 7.26521 15 7 15H5V5C5 4.20435 5.31607 3.44129 5.87868 2.87868C6.44129 2.31607 7.20435 2 8 2L8.143 2.063C8.37722 2.90643 8.88099 3.65004 9.57741 4.18035C10.2738 4.71066 11.1247 4.99852 12 5C12.8872 4.99245 13.7476 4.6953 14.4503 4.15376C15.153 3.61222 15.6596 2.85594 15.893 2H16C16.7956 2 17.5587 2.31607 18.1213 2.87868C18.6839 3.44129 19 4.20435 19 5V15H17C16.7348 15 16.4804 15.1054 16.2929 15.2929C16.1054 15.4804 16 15.7348 16 16C16 16.2652 16.1054 16.5196 16.2929 16.7071C16.4804 16.8946 16.7348 17 17 17H19V21C19 21.2652 18.8946 21.5196 18.7071 21.7071C18.5196 21.8946 18.2652 22 18 22Z" fill="#70F0B4"/>
<path d="M13 15H11C10.7348 15 10.4804 15.1054 10.2929 15.2929C10.1054 15.4804 10 15.7348 10 16C10 16.2652 10.1054 16.5196 10.2929 16.7071C10.4804 16.8947 10.7348 17 11 17H13C13.2652 17 13.5196 16.8947 13.7071 16.7071C13.8947 16.5196 14 16.2652 14 16C14 15.7348 13.8947 15.4804 13.7071 15.2929C13.5196 15.1054 13.2652 15 13 15Z" fill="#70F0B4"/>
</g>

</symbol><symbol id="icon-time" viewBox="0 0 24 24">
<g clip-path="url(#clip0_2_239)">
<path d="M12 0C9.0455 0.00210637 6.19613 1.09662 4 3.073V1C4 0.734784 3.89464 0.48043 3.70711 0.292893C3.51957 0.105357 3.26522 0 3 0C2.73478 0 2.48043 0.105357 2.29289 0.292893C2.10536 0.48043 2 0.734784 2 1V4C2 4.79565 2.31607 5.55871 2.87868 6.12132C3.44129 6.68393 4.20435 7 5 7H8C8.26522 7 8.51957 6.89464 8.70711 6.70711C8.89464 6.51957 9 6.26522 9 6C9 5.73478 8.89464 5.48043 8.70711 5.29289C8.51957 5.10536 8.26522 5 8 5H5C4.96628 4.995 4.93289 4.98799 4.9 4.979C6.52952 3.33783 8.67813 2.31308 10.9791 2.07967C13.28 1.84626 15.5906 2.41866 17.5165 3.69916C19.4424 4.97967 20.8642 6.88889 21.5392 9.10095C22.2142 11.313 22.1005 13.6908 21.2176 15.8283C20.3347 17.9659 18.7372 19.7308 16.698 20.8218C14.6587 21.9127 12.304 22.2621 10.0358 21.8102C7.76764 21.3584 5.72659 20.1333 4.26106 18.3442C2.79553 16.5551 1.99637 14.3127 2 12C2 11.7348 1.89464 11.4804 1.70711 11.2929C1.51957 11.1054 1.26522 11 1 11C0.734784 11 0.48043 11.1054 0.292893 11.2929C0.105357 11.4804 0 11.7348 0 12C0 14.3734 0.703788 16.6935 2.02236 18.6668C3.34094 20.6402 5.21509 22.1783 7.4078 23.0866C9.60051 23.9948 12.0133 24.2324 14.3411 23.7694C16.6689 23.3064 18.8071 22.1635 20.4853 20.4853C22.1635 18.8071 23.3064 16.6689 23.7694 14.3411C24.2324 12.0133 23.9948 9.60051 23.0866 7.4078C22.1783 5.21509 20.6402 3.34094 18.6668 2.02236C16.6935 0.703788 14.3734 0 12 0V0Z" fill="#70F0B4"/>
<path d="M12 6C11.7348 6 11.4804 6.10536 11.2929 6.29289C11.1054 6.48043 11 6.73478 11 7V12C11.0001 12.2652 11.1055 12.5195 11.293 12.707L14.293 15.707C14.4816 15.8892 14.7342 15.99 14.9964 15.9877C15.2586 15.9854 15.5094 15.8802 15.6948 15.6948C15.8802 15.5094 15.9854 15.2586 15.9877 14.9964C15.99 14.7342 15.8892 14.4816 15.707 14.293L13 11.586V7C13 6.73478 12.8946 6.48043 12.7071 6.29289C12.5196 6.10536 12.2652 6 12 6Z" fill="#70F0B4"/>
</g>

</symbol></svg>