<svg width="30" height="30" viewBox="0 0 30 30" fill="none" xmlns="http://www.w3.org/2000/svg">
<path d="M11.0625 14.9959C11.0623 15.7747 11.293 16.5361 11.7255 17.1838C12.158 17.8314 12.7729 18.3363 13.4924 18.6345C14.2118 18.9327 15.0036 19.0109 15.7674 18.8591C16.5313 18.7073 17.233 18.3323 17.7838 17.7817C18.3346 17.2311 18.7097 16.5295 18.8618 15.7657C19.0138 15.0018 18.9359 14.2101 18.6379 13.4905C18.3399 12.771 17.8352 12.1559 17.1877 11.7232C16.5401 11.2905 15.7788 11.0596 15 11.0596C13.9568 11.0624 12.957 11.4779 12.2193 12.2155C11.4815 12.9531 11.0656 13.9527 11.0625 14.9959Z" fill="#25282D"/>
<path d="M27.9346 12.7611V12.7641C27.8385 12.1917 27.7015 11.6269 27.5244 11.0742H27.518C27.6977 11.6296 27.8362 12.1976 27.9322 12.7734C27.8359 12.1977 27.6975 11.6297 27.518 11.0742H18.4125C19.5287 12.0703 20.25 13.4279 20.25 15.0029C20.2526 15.9259 20.0032 16.8321 19.5287 17.6238L13.5352 28.0342C13.5354 28.0395 13.5354 28.0447 13.5352 28.05V28.0664V28.0512C14.0217 28.1031 14.5107 28.1277 15 28.125C15.4008 28.125 15.7975 28.1021 16.1895 28.0664C16.7767 28.0133 17.3597 27.9205 17.9344 27.7887C23.7703 26.4563 28.125 21.2344 28.125 14.9965C28.1251 14.2473 28.0614 13.4995 27.9346 12.7611Z" fill="#25282D"/>
<path d="M15 20.2442C13.0313 20.2442 11.3906 19.1947 10.4713 17.6198L4.45312 7.20999L4.44492 7.19592C3.14631 8.95407 2.30735 11.0087 2.00417 13.1733C1.70099 15.3379 1.9432 17.544 2.70881 19.5912C3.47443 21.6385 4.7392 23.4621 6.38834 24.8966C8.03748 26.3311 10.0188 27.3311 12.1523 27.8057V27.8028L16.7045 19.916C16.1602 20.1254 15.5831 20.2365 15 20.2442Z" fill="#25282D"/>
<path d="M5.34902 6.12718L9.88125 13.9348C10.1165 12.7498 10.7551 11.6829 11.6884 10.9157C12.6216 10.1484 13.7919 9.72825 15 9.7266H27.0217C26.6084 8.81853 26.1022 7.95572 25.5111 7.15199L25.5182 7.15667C26.107 7.95895 26.6108 8.82021 27.0217 9.7266H27.0316C26.6211 8.81749 26.1172 7.95349 25.5281 7.14847C25.5209 7.14397 25.514 7.13887 25.5076 7.13324C24.3528 5.58943 22.872 4.31907 21.1706 3.41253C19.4691 2.50599 17.5888 1.98553 15.6633 1.8882C13.7379 1.79086 11.8146 2.11903 10.0304 2.84936C8.24617 3.57969 6.64481 4.69423 5.34023 6.11371L5.34844 6.12777L5.34902 6.12718Z" fill="#25282D"/>
</svg>
