<svg width="18" height="18" viewBox="0 0 18 18" fill="none" xmlns="http://www.w3.org/2000/svg">
<g clip-path="url(#clip0_2_230)">
<path d="M8.92214 0.769008C7.27903 0.769008 5.67283 1.25625 4.30663 2.16911C2.94044 3.08197 1.87562 4.37945 1.24683 5.89749C0.618043 7.41552 0.453522 9.08592 0.774077 10.6975C1.09463 12.309 1.88586 13.7893 3.04771 14.9511C4.20956 16.113 5.68985 16.9042 7.30139 17.2248C8.91292 17.5453 10.5833 17.3808 12.1014 16.752C13.6194 16.1232 14.9169 15.0584 15.8297 13.6922C16.7426 12.326 17.2298 10.7198 17.2298 9.0767C17.2274 6.8741 16.3514 4.76239 14.7939 3.20491C13.2365 1.64743 11.1247 0.77139 8.92214 0.769008ZM12.8731 10.8317L10.3905 13.3143C10.1977 13.5072 9.96868 13.6602 9.71668 13.7646C9.46467 13.869 9.19457 13.9228 8.92179 13.9228C8.64902 13.9228 8.37891 13.869 8.12691 13.7646C7.8749 13.6602 7.64593 13.5072 7.45306 13.3143L4.97114 10.8317L4.95452 10.8144C4.88853 10.7496 4.83619 10.6723 4.80058 10.587C4.76497 10.5016 4.74681 10.41 4.74719 10.3175C4.74756 10.2251 4.76645 10.1336 4.80274 10.0486C4.83904 9.96354 4.892 9.88663 4.95851 9.82238C5.02502 9.75814 5.10372 9.70788 5.18997 9.67455C5.27622 9.64122 5.36828 9.62551 5.4607 9.62835C5.55312 9.63118 5.64404 9.6525 5.72809 9.69105C5.81214 9.72959 5.88761 9.78459 5.95006 9.85278L8.22983 12.1325L8.22498 4.92286C8.22498 4.73924 8.29792 4.56315 8.42776 4.43332C8.55759 4.30349 8.73368 4.23055 8.91729 4.23055C9.1009 4.23055 9.27699 4.30349 9.40683 4.43332C9.53666 4.56315 9.6096 4.73924 9.6096 4.92286L9.61444 12.1319L11.8942 9.85278C11.9581 9.78666 12.0345 9.73392 12.1189 9.69763C12.2034 9.66135 12.2942 9.64225 12.3862 9.64145C12.4781 9.64065 12.5693 9.65817 12.6543 9.69298C12.7394 9.72779 12.8167 9.7792 12.8817 9.8442C12.9467 9.9092 12.9981 9.9865 13.0329 10.0716C13.0677 10.1567 13.0853 10.2478 13.0845 10.3397C13.0837 10.4317 13.0646 10.5225 13.0283 10.607C12.992 10.6914 12.9393 10.7678 12.8731 10.8317Z" fill="#70F0B4"/>
</g>
<defs>
<clipPath id="clip0_2_230">
<rect width="16.6154" height="16.6154" fill="white" transform="translate(17.2298 17.3844) rotate(-180)"/>
</clipPath>
</defs>
</svg>
